<svg xmlns="http://www.w3.org/2000/svg" width="1614.55" height="820.28" viewBox="0 0 1614.55 820.28"><path d="M730,130.28h466.48V213H1125.4l71.07,40.73v96.84L963.23,232.94,730,344.47v-87l76.61-47.38H730Z" transform="translate(-152.45 -130.28)" fill="#293f8a"/><path d="M730,386.31,963.23,274.36l233.24,117.49H826.14v137.3h255.2V494.37H862V428.29h334.44V607.23H730Z" transform="translate(-152.45 -130.28)" fill="#293f8a"/><path d="M1178.6,831.32" transform="translate(-152.45 -130.28)" fill="#293f8a"/><path d="M259.5,799.88c-.12,12.23-.5,16.39-2.26,20.18-3.28,7.19-10.09,10.59-23.21,11.48-5.17.49-15.26.62-32,.62-24.22,0-32-1.13-38.84-5.55-8.32-5.3-10.72-14.12-10.72-39.09,0-22.2,2.52-30.14,11.35-35.18,7.55-4.43,15.63-5.55,39.21-5.55,31.4,0,38.21.63,45.4,4.17,6.81,3.4,10,10.84,10,23.2v2.77H233.91c-.51-9.2-2.4-10-24.6-10-20.93,0-24.72.51-27.87,3.28s-3.65,6.19-3.65,19.8c0,20.18,1.88,21.69,26.48,21.69,19,0,21.82-.13,25.35-1.64s5-4.17,5-10.23Z" transform="translate(-152.45 -130.28)" fill="#293f8a"/><path d="M279.75,747.42h25.6v63.3h57.88v20.81H279.75Z" transform="translate(-152.45 -130.28)" fill="#293f8a"/><path d="M412.59,747.42h34.3l46,84.11h-28l-8.32-15H402.37l-8.07,15h-29ZM447.64,799l-18.16-33.54L411.58,799Z" transform="translate(-152.45 -130.28)" fill="#293f8a"/><path d="M528.8,747.42V789a62.16,62.16,0,0,0,.38,11.73c1.26,9.46,5.42,11.35,24.59,11.35s24.47-.51,27.62-2.9c2.52-1.89,3.77-5.55,3.91-12,.12-1.88.12-1.88.12-11.22V747.42H611v44.13c.27,20.8-1.51,27-8.95,33.67-6.06,4.66-13.62,6.68-24.59,6.8-3.91.13-6.19.13-11.22.13l-9.59.12c-23.7-.12-28.37-.37-34.55-2-15.26-4.66-19.29-12.61-18.92-37.58V747.42Z" transform="translate(-152.45 -130.28)" fill="#293f8a"/><path d="M627.84,746.59h72.65c17.79,0,26.11,2,31.91,7.8,4.66,4.55,6.56,9.84,7.44,20.56.26,3.91.5,9.71.5,13.75a159.49,159.49,0,0,1-1.26,21.06,22.58,22.58,0,0,1-17.65,19.67,76.92,76.92,0,0,1-17.53,1.26H627.84Zm68.47,64.06c6.94,0,7.45,0,10.47-1,6.19-1.88,7.8-6.31,7.8-20.8,0-17.66-3-21.32-17.78-21.32H653.45v43.13Z" transform="translate(-152.45 -130.28)" fill="#293f8a"/><path d="M849.62,747.42v19h-68V781H845.7v16.66H781.64v14.88H850.5v19H756.42V747.42Z" transform="translate(-152.45 -130.28)" fill="#293f8a"/><path d="M926.79,747.42h25.6v31.39h13.37l34.8-31.39h35.19L987.46,789l53,42.5H1003.2l-38-32.29H952.38v32.29h-25.6Z" transform="translate(-152.45 -130.28)" fill="#293f8a"/><path d="M1140.34,747.79c13,2.39,19.3,9.07,21.07,22.57a174.17,174.17,0,0,1,.75,20.43c0,20.3-2.15,28.5-9.33,34.44-5,4.29-12.11,6.31-24.34,6.8-4.54.25-15.77.38-24,.38-20,0-30.27-.38-35.32-1.38-9.32-1.64-14.75-5.18-17.91-11.35s-4-12.36-4-30.77c0-14.13.25-17.66,1.76-23.33,2.4-9,7.32-13.74,16.77-16.53,7.06-2,14.76-2.51,37-2.51C1127,746.53,1134.42,746.78,1140.34,747.79Zm-62.8,22.32c-3.4,2.64-4.41,6.8-4.41,18.91,0,12.37,1,16.9,4.16,19.55,3.4,2.78,7.57,3.28,26.86,3.28,22.07,0,26.61-.76,29.51-4.79,2.4-3,3-7.32,3-18.54,0-21.19-.39-21.44-31.91-21.44C1086,767.09,1080.83,767.71,1077.54,770.11Z" transform="translate(-152.45 -130.28)" fill="#293f8a"/><path d="M1178.6,747.42h40.73l51,63.93-.62-63.93h24.21v84.11h-41.12l-50.19-63.32.63,63.31H1178.6Z" transform="translate(-152.45 -130.28)" fill="#293f8a"/><path d="M1312.49,747.42H1385c14.88,0,21.44,1.25,26.23,5.29s7.19,11.09,7.19,22.44c0,15.64-3.78,21.82-14.5,24.22,10.47,1.76,13.62,6.19,13.36,18.91v13.25h-26V821.06c-.12-9.08-2.64-11-14.12-10.72H1338v21.19h-25.47Zm65.45,42.36c12.36,0,14.75-1.51,14.75-9.83,0-5.42-.5-7.69-2.13-9.46-1.9-2-4-2.4-11.75-2.4H1338v21.69Z" transform="translate(-152.45 -130.28)" fill="#293f8a"/><path d="M1471.34,747.42h34.31l46,84.11h-28l-8.32-15h-54.23l-8.07,15h-29ZM1506.42,799l-18.17-33.54L1470.34,799Z" transform="translate(-152.45 -130.28)" fill="#293f8a"/><path d="M1584.39,768.21h-37.45v-20.8h100.5v20.8H1610v63.31h-25.59Z" transform="translate(-152.45 -130.28)" fill="#293f8a"/><path d="M1657.53,747.42h25.61v31.14h58.26V747.42H1767v84.11h-25.6V799.37h-58.26v32.16h-25.61Z" transform="translate(-152.45 -130.28)" fill="#293f8a"/><path d="M159.64,898.46h41.25c7.57,0,10.59.7,13.14,3s3.62,5.48,3.62,10.74c0,5.09-1.15,7.57-4.39,9.42a13.46,13.46,0,0,1-2.47,1.07c6,1.08,8.72,4.71,8.72,12,0,5.71-1.07,9.11-3.7,11.59-2.86,2.62-6.49,3.71-12.6,3.71H159.64Zm36.93,22.19c8.26,0,10.19-.24,12-1.32s2.71-3.4,2.71-7c0-6.57-2.63-8.65-11.06-8.65H165.81v17Zm3.86,24.18c10.2,0,12.67-1.94,12.67-9.81s-2.32-9.5-14.06-9.5H165.81v19.31Z" transform="translate(-152.45 -130.28)" fill="#293f8a"/><path d="M323.48,898.46v35a26.71,26.71,0,0,1-.77,9.12c-2.4,6.48-7.73,8-29.6,8-17.85,0-23.72-.93-27.13-4.17a10.29,10.29,0,0,1-3.08-6.89,50.37,50.37,0,0,1-.15-6v-35h6.19v33.92a24.34,24.34,0,0,0,.31,6.49c1.23,5.41,4.48,6.26,23.87,6.26,16.38,0,20.55-.62,22.64-3.48,1.39-1.93,1.55-2.78,1.55-9.27V898.46Z" transform="translate(-152.45 -130.28)" fill="#293f8a"/><path d="M369,898.46h6.19V950H369Z" transform="translate(-152.45 -130.28)" fill="#293f8a"/><path d="M421.24,898.46h6.19v46.36H468.3V950H421.24Z" transform="translate(-152.45 -130.28)" fill="#293f8a"/><path d="M508.69,898.46h40.09c11.36,0,17.07,2.09,20.16,7.49,2.32,3.79,3.4,9.89,3.4,18.24s-1.07,14.53-3.4,18.31c-3.09,5.41-8.8,7.5-20.16,7.5H508.69Zm40.55,46.36c7.26,0,12-1.69,14.06-5,1.78-2.93,2.63-7.72,2.63-15.29q0-11.94-2.78-16.22c-2.09-3.17-6.5-4.64-14.37-4.64H514.86v41.17Z" transform="translate(-152.45 -130.28)" fill="#293f8a"/><path d="M616.83,898.46H623V950h-6.18Z" transform="translate(-152.45 -130.28)" fill="#293f8a"/><path d="M669.11,898.46h10l48.69,47.13V898.46H734V950H724L675.3,902.87V950h-6.19Z" transform="translate(-152.45 -130.28)" fill="#293f8a"/><path d="M843.07,924.58a89.11,89.11,0,0,1-.31,11.67c-.62,6.73-2.94,10.74-7.34,12.52-3.33,1.39-8,1.78-23.72,1.78-21.48,0-25.43-.62-29.36-4.71-3.32-3.48-4.1-7.5-4.1-21.56s.77-18.15,4.1-21.63c4-4.18,7.64-4.71,31.21-4.71,15.84,0,20,.54,23.72,3.09,3.56,2.39,5,5.87,5.26,12.59h-6.11c-.15-4.87-.46-6.26-1.93-7.57-2.47-2.4-4.71-2.7-18.78-2.7-20.31,0-24.72.38-27.43,2.31-2.94,2.17-3.63,5.65-3.63,18.62,0,11.74.54,15.53,2.72,17.7,2.46,2.63,6.25,3.17,21.7,3.17,20.09,0,22.8-.31,25.42-3.25,1.93-2.09,2.32-4,2.55-12.13H809.47v-5.19Z" transform="translate(-152.45 -130.28)" fill="#293f8a"/><path d="M1049.31,932.69v2.15c0,6.19-.61,8.88-2.62,11.2s-4.49,3.4-9.2,4c-2.94.23-11.75.54-18.7.54-18.62,0-23.18-.79-27-4.72-3.33-3.39-4.1-7.5-4.1-21.56,0-16.06,1.08-20.16,6.33-23.48,4-2.48,8.19-2.86,29.44-2.86,12.92,0,17.39.62,20.55,2.94,3.48,2.39,4.57,5.65,4.79,13.82h-6v-1.31c0-9.12-2.15-10-23.79-10-24.73,0-24.89.08-24.89,20.93,0,11.74.54,15.46,2.71,17.7,2.47,2.55,6.41,3.17,20.86,3.17,23.18,0,25.57-.85,25.57-9.51v-2.93Z" transform="translate(-152.45 -130.28)" fill="#293f8a"/><path d="M1154.05,902.63c3.32,3.48,4.1,7.49,4.1,21.55s-.78,18.16-4.1,21.64c-3.94,4.1-7.88,4.72-29.06,4.72s-25.11-.62-29.06-4.72c-3.33-3.48-4.1-7.5-4.1-21.56s.77-18.23,4.1-21.63c3.94-4.1,7.87-4.7,29.36-4.7C1146.1,897.93,1150.11,898.61,1154.05,902.63ZM1101,906.5c-2.16,2.23-2.71,5.94-2.71,17.76s.54,15.45,2.71,17.69c2.63,2.78,5.86,3.17,24,3.17s21.4-.46,24-3.17c2.15-2.24,2.69-6,2.69-17.69s-.54-15.53-2.69-17.76c-2.4-2.64-6.73-3.17-23.72-3.17-17.78,0-21.87.53-24.34,3.17Z" transform="translate(-152.45 -130.28)" fill="#293f8a"/><path d="M1202.7,898.46h10l48.67,47.13V898.46h6.19V950h-10l-48.67-47.13V950h-6.19Z" transform="translate(-152.45 -130.28)" fill="#293f8a"/><path d="M1373.41,932.69v2.15c0,6.19-.61,8.88-2.62,11.2s-4.48,3.4-9.2,4c-2.93.23-11.74.54-18.7.54-18.62,0-23.17-.79-27-4.72-3.34-3.39-4.11-7.5-4.11-21.56,0-16.06,1.08-20.16,6.34-23.48,3.94-2.48,8.19-2.86,29.44-2.86,12.9,0,17.38.62,20.55,2.94,3.48,2.39,4.57,5.65,4.79,13.82h-6v-1.31c0-9.12-2.15-10-23.79-10-24.73,0-24.88.08-24.88,20.93,0,11.74.53,15.46,2.7,17.7,2.48,2.55,6.41,3.17,20.87,3.17,23.16,0,25.56-.85,25.56-9.51v-2.93Z" transform="translate(-152.45 -130.28)" fill="#293f8a"/><path d="M1417.43,898.46h51.3v5.18h-45.12v17.22h43.5v4.86h-43.5v19.09h45.51V950h-51.69Z" transform="translate(-152.45 -130.28)" fill="#293f8a"/><path d="M1512.35,898.46h41.57c8.12,0,11.28.77,13.75,3.4,2.25,2.31,3.1,5.65,3.1,11.82,0,7.58-1,10.74-4.1,13.22-2.55,2-5.79,2.85-11.36,2.85h-36.77V950h-6.19Zm38.4,26.1c11.13,0,13.61-1.92,13.61-10.49,0-8.35-2.48-10.43-12.37-10.43h-33.45v20.93Z" transform="translate(-152.45 -130.28)" fill="#293f8a"/><path d="M1635,903.64h-26.19v-5.18h58.5v5.18h-26.12V950H1635Z" transform="translate(-152.45 -130.28)" fill="#293f8a"/><path d="M1711.65,933.92v1.39c0,5.18,1.07,7.26,4.41,8.34a67.58,67.58,0,0,0,18,1.47c20.18,0,23.79-1.55,23.79-10.12,0-4.33-1.31-6.26-4.79-7.26s-3.7-.93-26.73-1.08c-9.35-.08-13.37-.77-16.54-2.85s-4.32-4.95-4.32-10c0-7.73,2.78-12.13,8.88-13.91a82.76,82.76,0,0,1,21.8-1.92c11.9,0,18,.84,21.57,3.08,3.77,2.32,4.94,5,5.17,12.21h-6c-.08-4.1-.77-6-2.47-7.27-2.4-1.85-7.73-2.62-18.15-2.62-20.33,0-24.27,1.61-24.27,9.89,0,3.55,1,5.56,3.17,6.56,2.71,1.24,5,1.39,19.63,1.48,16.38.07,19.93.38,23.65,2.15,4.16,2,5.86,5.48,5.86,11.89,0,7.12-2.4,11.36-7.5,13.29-3.79,1.39-9.65,1.94-21.55,1.94-12.52,0-18.39-.54-22.57-1.94a10.82,10.82,0,0,1-7.18-11.12V933.9Z" transform="translate(-152.45 -130.28)" fill="#293f8a"/></svg>